<svg width="14" height="14" viewBox="0 0 14 14" fill="none" xmlns="http://www.w3.org/2000/svg">
  <path
    d="M7.35 12.6533L7.34993 12.6532L7.34732 12.6554C7.25071 12.738 7.12777 12.7835 7.00065 12.7835C6.87353 12.7835 6.75059 12.738 6.65398 12.6554L6.65327 12.6548C6.55995 12.5739 5.49459 11.6507 4.4511 10.3507C3.40203 9.04369 2.38409 7.36682 2.38398 5.787C2.39621 4.57069 2.88797 3.40835 3.75239 2.55258C4.61686 1.69674 5.78419 1.21669 7.00065 1.21675C8.21711 1.21669 9.38444 1.69674 10.2489 2.55258C11.1133 3.40834 11.6051 4.57067 11.6173 5.78696C11.6172 7.3669 10.6065 9.04383 9.56108 10.3507C8.51699 11.656 7.44813 12.5804 7.35 12.6533ZM6.96617 11.4988L7.00065 11.5316L7.03513 11.4988C7.52313 11.0342 8.40058 10.1524 9.15636 9.11568C9.91067 8.08097 10.5506 6.88278 10.5506 5.78675C10.5506 4.84523 10.1766 3.94227 9.51088 3.27652C8.84512 2.61076 7.94217 2.23675 7.00065 2.23675C6.05913 2.23675 5.15618 2.61076 4.49042 3.27652C3.82467 3.94227 3.45065 4.84523 3.45065 5.78675C3.45065 6.8915 4.09059 8.08967 4.84496 9.12229C5.60078 10.1569 6.47826 11.0343 6.96617 11.4988Z"
    fill="#27125C"
    stroke="white"
    stroke-width="0.1"
  ></path>
  <path
    d="M5.89414 3.88566C6.22167 3.66681 6.60674 3.55 7.00065 3.55C7.52887 3.55 8.03546 3.75984 8.40897 4.13335C8.78248 4.50686 8.99232 5.01344 8.99232 5.54167C8.99232 5.93558 8.87551 6.32065 8.65666 6.64818C8.43782 6.97571 8.12676 7.23098 7.76283 7.38173C7.3989 7.53247 6.99844 7.57191 6.6121 7.49506C6.22575 7.41822 5.87087 7.22853 5.59233 6.94999C5.31379 6.67145 5.1241 6.31657 5.04725 5.93022C4.97041 5.54388 5.00985 5.14342 5.16059 4.77949C5.31134 4.41556 5.56661 4.1045 5.89414 3.88566ZM6.48675 6.31078C6.63887 6.41242 6.8177 6.46667 7.00065 6.46667C7.24598 6.46667 7.48125 6.36921 7.65473 6.19574C7.8282 6.02227 7.92565 5.78699 7.92565 5.54167C7.92565 5.35872 7.8714 5.17988 7.76976 5.02776C7.66812 4.87565 7.52366 4.75709 7.35463 4.68708C7.18561 4.61707 6.99963 4.59875 6.82019 4.63444C6.64076 4.67013 6.47594 4.75823 6.34658 4.88759C6.21721 5.01696 6.12912 5.18178 6.09343 5.36121C6.05773 5.54064 6.07605 5.72663 6.14606 5.89565C6.21607 6.06467 6.33463 6.20914 6.48675 6.31078Z"
    fill="#27125C"
    stroke="white"
    stroke-width="0.1"
  ></path>
</svg>
