<svg width="14" height="14" viewBox="0 0 14 14" fill="none" xmlns="http://www.w3.org/2000/svg">
  <path
    d="M12.25 7.73217C10.582 8.40663 8.79925 8.75228 7 8.75008C5.14325 8.75008 3.37167 8.38842 1.75 7.73217M7 7.00008H7.00583M9.33333 3.50008V2.33342C9.33333 2.024 9.21042 1.72725 8.99162 1.50846C8.77283 1.28966 8.47609 1.16675 8.16667 1.16675H5.83333C5.52391 1.16675 5.22717 1.28966 5.00838 1.50846C4.78958 1.72725 4.66667 2.024 4.66667 2.33342V3.50008H9.33333ZM2.91667 11.6668H11.0833C11.3928 11.6668 11.6895 11.5438 11.9083 11.325C12.1271 11.1062 12.25 10.8095 12.25 10.5001V4.66675C12.25 4.35733 12.1271 4.06058 11.9083 3.84179C11.6895 3.623 11.3928 3.50008 11.0833 3.50008H2.91667C2.60725 3.50008 2.3105 3.623 2.09171 3.84179C1.87292 4.06058 1.75 4.35733 1.75 4.66675V10.5001C1.75 10.8095 1.87292 11.1062 2.09171 11.325C2.3105 11.5438 2.60725 11.6668 2.91667 11.6668Z"
    stroke="#27125C"
    stroke-linecap="round"
    stroke-linejoin="round"
  ></path>
</svg>
