<svg
  width="55"
  height="58"
  viewBox="0 0 55 58"
  fill="#FEE156"
  xmlns="http://www.w3.org/2000/svg"
  className="absolute -bottom-4 -left-5 w-[19px] lg:-bottom-5 lg:-left-6"
>
  <path
    d="M48.9684 21.4379C49.9167 21.7574 50.8147 22.027 51.6095 22.2484C50.8151 22.4698 49.9175 22.7395 48.9698 23.059C45.7965 24.1287 41.9239 25.8007 39.5443 28.1823C37.1647 30.564 35.4959 34.4379 34.4289 37.6121C34.1102 38.5601 33.8413 39.4579 33.6205 40.2525C33.3985 39.4579 33.1281 38.5601 32.8078 37.6121C31.7354 34.4379 30.0601 30.564 27.6765 28.1823C25.2928 25.8007 21.4175 24.1287 18.2424 23.059C17.13 22.6842 16.0868 22.378 15.1982 22.1378C16.0561 21.847 17.0636 21.4915 18.143 21.0829C21.2649 19.9011 25.0735 18.2443 27.5766 16.392C28.9147 15.4018 29.9899 13.9109 30.8508 12.2986C31.7163 10.6776 32.3942 8.87838 32.9131 7.21296C33.2127 6.25131 33.4611 5.32832 33.6629 4.50174C33.8705 5.23079 34.1169 6.03773 34.403 6.88477C35.4754 10.0589 37.1507 13.9329 39.5343 16.3145C41.918 18.6961 45.7933 20.3682 48.9684 21.4379Z"
    fill="current"
    stroke="black"
    stroke-width="1.6"
  ></path>
  <path
    d="M20.8885 44.6946C21.0308 44.7426 21.1711 44.7886 21.3089 44.8326C21.1712 44.8767 21.031 44.9227 20.8888 44.9706C19.0694 45.5839 16.7909 46.5593 15.3715 47.9799C13.9522 49.4004 12.9787 51.6798 12.3669 53.4996C12.3191 53.6419 12.2732 53.7821 12.2293 53.9199C12.1851 53.7821 12.139 53.6419 12.0909 53.4996C11.4761 51.6798 10.4988 49.4004 9.07706 47.9799C7.65529 46.5593 5.37514 45.5839 3.55477 44.9706C3.30741 44.8873 3.06602 44.8098 2.8334 44.7382C3.0517 44.6592 3.27814 44.5755 3.5104 44.4876C5.29624 43.8116 7.51089 42.8514 8.98183 41.7629C9.80395 41.1545 10.4473 40.2533 10.9507 39.3105C11.4586 38.3591 11.8534 37.3095 12.1536 36.3459C12.1964 36.2085 12.2374 36.0725 12.2766 35.9384C12.3013 36.0135 12.3266 36.0893 12.3523 36.1656C12.9672 37.9855 13.9445 40.2648 15.3662 41.6854C16.788 43.106 19.0682 44.0814 20.8885 44.6946Z"
    fill="current"
    stroke="black"
    stroke-width="1.6"
  ></path>
</svg>
