<svg width="41" height="11" viewBox="0 0 41 11" fill="none" xmlns="http://www.w3.org/2000/svg">
<path d="M6.804 1.576V3.22H4.572V10H2.52V3.22H0.288V1.576H6.804ZM14.4458 3.304V10H12.3938V9.088C12.1858 9.384 11.9018 9.624 11.5418 9.808C11.1898 9.984 10.7978 10.072 10.3658 10.072C9.85384 10.072 9.40184 9.96 9.00984 9.736C8.61784 9.504 8.31384 9.172 8.09784 8.74C7.88184 8.308 7.77384 7.8 7.77384 7.216V3.304H9.81384V6.94C9.81384 7.388 9.92984 7.736 10.1618 7.984C10.3938 8.232 10.7058 8.356 11.0978 8.356C11.4978 8.356 11.8138 8.232 12.0458 7.984C12.2778 7.736 12.3938 7.388 12.3938 6.94V3.304H14.4458ZM17.9718 4.42C18.2118 4.052 18.5118 3.764 18.8718 3.556C19.2318 3.34 19.6318 3.232 20.0718 3.232V5.404H19.5078C18.9958 5.404 18.6118 5.516 18.3558 5.74C18.0998 5.956 17.9718 6.34 17.9718 6.892V10H15.9198V3.304H17.9718V4.42ZM22.0846 2.608C21.7246 2.608 21.4286 2.504 21.1966 2.296C20.9726 2.08 20.8606 1.816 20.8606 1.504C20.8606 1.184 20.9726 0.92 21.1966 0.711999C21.4286 0.495999 21.7246 0.387999 22.0846 0.387999C22.4366 0.387999 22.7246 0.495999 22.9486 0.711999C23.1806 0.92 23.2966 1.184 23.2966 1.504C23.2966 1.816 23.1806 2.08 22.9486 2.296C22.7246 2.504 22.4366 2.608 22.0846 2.608ZM23.1046 3.304V10H21.0526V3.304H23.1046ZM27.3157 10.096C26.7317 10.096 26.2117 9.996 25.7557 9.796C25.2997 9.596 24.9397 9.324 24.6757 8.98C24.4117 8.628 24.2637 8.236 24.2317 7.804H26.2597C26.2837 8.036 26.3917 8.224 26.5837 8.368C26.7757 8.512 27.0117 8.584 27.2917 8.584C27.5477 8.584 27.7437 8.536 27.8797 8.44C28.0237 8.336 28.0957 8.204 28.0957 8.044C28.0957 7.852 27.9957 7.712 27.7957 7.624C27.5957 7.528 27.2717 7.424 26.8237 7.312C26.3437 7.2 25.9437 7.084 25.6237 6.964C25.3037 6.836 25.0277 6.64 24.7957 6.376C24.5637 6.104 24.4477 5.74 24.4477 5.284C24.4477 4.9 24.5517 4.552 24.7597 4.24C24.9757 3.92 25.2877 3.668 25.6957 3.484C26.1117 3.3 26.6037 3.208 27.1717 3.208C28.0117 3.208 28.6717 3.416 29.1517 3.832C29.6397 4.248 29.9197 4.8 29.9917 5.488H28.0957C28.0637 5.256 27.9597 5.072 27.7837 4.936C27.6157 4.8 27.3917 4.732 27.1117 4.732C26.8717 4.732 26.6877 4.78 26.5597 4.876C26.4317 4.964 26.3677 5.088 26.3677 5.248C26.3677 5.44 26.4677 5.584 26.6677 5.68C26.8757 5.776 27.1957 5.872 27.6277 5.968C28.1237 6.096 28.5277 6.224 28.8397 6.352C29.1517 6.472 29.4237 6.672 29.6557 6.952C29.8957 7.224 30.0197 7.592 30.0277 8.056C30.0277 8.448 29.9157 8.8 29.6917 9.112C29.4757 9.416 29.1597 9.656 28.7437 9.832C28.3357 10.008 27.8597 10.096 27.3157 10.096ZM34.0071 10.096C33.4231 10.096 32.9031 9.996 32.4471 9.796C31.9911 9.596 31.6311 9.324 31.3671 8.98C31.1031 8.628 30.9551 8.236 30.9231 7.804H32.9511C32.9751 8.036 33.0831 8.224 33.2751 8.368C33.4671 8.512 33.7031 8.584 33.9831 8.584C34.2391 8.584 34.4351 8.536 34.5711 8.44C34.7151 8.336 34.7871 8.204 34.7871 8.044C34.7871 7.852 34.6871 7.712 34.4871 7.624C34.2871 7.528 33.9631 7.424 33.5151 7.312C33.0351 7.2 32.6351 7.084 32.3151 6.964C31.9951 6.836 31.7191 6.64 31.4871 6.376C31.2551 6.104 31.1391 5.74 31.1391 5.284C31.1391 4.9 31.2431 4.552 31.4511 4.24C31.6671 3.92 31.9791 3.668 32.3871 3.484C32.8031 3.3 33.2951 3.208 33.8631 3.208C34.7031 3.208 35.3631 3.416 35.8431 3.832C36.3311 4.248 36.6111 4.8 36.6831 5.488H34.7871C34.7551 5.256 34.6511 5.072 34.4751 4.936C34.3071 4.8 34.0831 4.732 33.8031 4.732C33.5631 4.732 33.3791 4.78 33.2511 4.876C33.1231 4.964 33.0591 5.088 33.0591 5.248C33.0591 5.44 33.1591 5.584 33.3591 5.68C33.5671 5.776 33.8871 5.872 34.3191 5.968C34.8151 6.096 35.2191 6.224 35.5311 6.352C35.8431 6.472 36.1151 6.672 36.3471 6.952C36.5871 7.224 36.7111 7.592 36.7191 8.056C36.7191 8.448 36.6071 8.8 36.3831 9.112C36.1671 9.416 35.8511 9.656 35.4351 9.832C35.0271 10.008 34.5511 10.096 34.0071 10.096Z" fill="#6913D9"/>
<path d="M40.6745 1.276L40.4345 7.024H38.6945L38.4545 1.276H40.6745ZM39.5945 10.096C39.2345 10.096 38.9385 9.992 38.7065 9.784C38.4825 9.568 38.3705 9.304 38.3705 8.992C38.3705 8.672 38.4825 8.404 38.7065 8.188C38.9385 7.972 39.2345 7.864 39.5945 7.864C39.9465 7.864 40.2345 7.972 40.4585 8.188C40.6905 8.404 40.8065 8.672 40.8065 8.992C40.8065 9.304 40.6905 9.568 40.4585 9.784C40.2345 9.992 39.9465 10.096 39.5945 10.096Z" fill="#FFE156"/>
</svg>
