<svg width="47" height="11" viewBox="0 0 47 11" fill="none" xmlns="http://www.w3.org/2000/svg">
<path d="M6.804 1.576V3.22H4.572V10H2.52V3.22H0.288V1.576H6.804ZM10.8818 10.096C10.2258 10.096 9.63384 9.956 9.10584 9.676C8.58584 9.396 8.17384 8.996 7.86984 8.476C7.57384 7.956 7.42584 7.348 7.42584 6.652C7.42584 5.964 7.57784 5.36 7.88184 4.84C8.18584 4.312 8.60184 3.908 9.12984 3.628C9.65784 3.348 10.2498 3.208 10.9058 3.208C11.5618 3.208 12.1538 3.348 12.6818 3.628C13.2098 3.908 13.6258 4.312 13.9298 4.84C14.2338 5.36 14.3858 5.964 14.3858 6.652C14.3858 7.34 14.2298 7.948 13.9178 8.476C13.6138 8.996 13.1938 9.396 12.6578 9.676C12.1298 9.956 11.5378 10.096 10.8818 10.096ZM10.8818 8.32C11.2738 8.32 11.6058 8.176 11.8778 7.888C12.1578 7.6 12.2978 7.188 12.2978 6.652C12.2978 6.116 12.1618 5.704 11.8898 5.416C11.6258 5.128 11.2978 4.984 10.9058 4.984C10.5058 4.984 10.1738 5.128 9.90984 5.416C9.64584 5.696 9.51384 6.108 9.51384 6.652C9.51384 7.188 9.64184 7.6 9.89784 7.888C10.1618 8.176 10.4898 8.32 10.8818 8.32ZM22.0865 3.304V10H20.0345V9.088C19.8265 9.384 19.5425 9.624 19.1825 9.808C18.8305 9.984 18.4385 10.072 18.0065 10.072C17.4945 10.072 17.0425 9.96 16.6505 9.736C16.2585 9.504 15.9545 9.172 15.7385 8.74C15.5225 8.308 15.4145 7.8 15.4145 7.216V3.304H17.4545V6.94C17.4545 7.388 17.5705 7.736 17.8025 7.984C18.0345 8.232 18.3465 8.356 18.7385 8.356C19.1385 8.356 19.4545 8.232 19.6865 7.984C19.9185 7.736 20.0345 7.388 20.0345 6.94V3.304H22.0865ZM25.6124 4.42C25.8524 4.052 26.1524 3.764 26.5124 3.556C26.8724 3.34 27.2724 3.232 27.7124 3.232V5.404H27.1484C26.6364 5.404 26.2524 5.516 25.9964 5.74C25.7404 5.956 25.6124 6.34 25.6124 6.892V10H23.5604V3.304H25.6124V4.42ZM29.7252 2.608C29.3652 2.608 29.0692 2.504 28.8372 2.296C28.6132 2.08 28.5012 1.816 28.5012 1.504C28.5012 1.184 28.6132 0.92 28.8372 0.711999C29.0692 0.495999 29.3652 0.387999 29.7252 0.387999C30.0772 0.387999 30.3652 0.495999 30.5892 0.711999C30.8212 0.92 30.9372 1.184 30.9372 1.504C30.9372 1.816 30.8212 2.08 30.5892 2.296C30.3652 2.504 30.0772 2.608 29.7252 2.608ZM30.7452 3.304V10H28.6932V3.304H30.7452ZM34.9563 10.096C34.3723 10.096 33.8523 9.996 33.3963 9.796C32.9403 9.596 32.5803 9.324 32.3163 8.98C32.0523 8.628 31.9043 8.236 31.8723 7.804H33.9003C33.9243 8.036 34.0323 8.224 34.2243 8.368C34.4163 8.512 34.6523 8.584 34.9323 8.584C35.1883 8.584 35.3843 8.536 35.5203 8.44C35.6643 8.336 35.7363 8.204 35.7363 8.044C35.7363 7.852 35.6363 7.712 35.4363 7.624C35.2363 7.528 34.9123 7.424 34.4643 7.312C33.9843 7.2 33.5843 7.084 33.2643 6.964C32.9443 6.836 32.6683 6.64 32.4363 6.376C32.2043 6.104 32.0883 5.74 32.0883 5.284C32.0883 4.9 32.1923 4.552 32.4003 4.24C32.6163 3.92 32.9283 3.668 33.3363 3.484C33.7523 3.3 34.2443 3.208 34.8123 3.208C35.6523 3.208 36.3123 3.416 36.7923 3.832C37.2803 4.248 37.5603 4.8 37.6323 5.488H35.7363C35.7043 5.256 35.6003 5.072 35.4243 4.936C35.2563 4.8 35.0323 4.732 34.7523 4.732C34.5123 4.732 34.3283 4.78 34.2003 4.876C34.0723 4.964 34.0083 5.088 34.0083 5.248C34.0083 5.44 34.1083 5.584 34.3083 5.68C34.5163 5.776 34.8363 5.872 35.2683 5.968C35.7643 6.096 36.1683 6.224 36.4803 6.352C36.7923 6.472 37.0643 6.672 37.2963 6.952C37.5363 7.224 37.6603 7.592 37.6683 8.056C37.6683 8.448 37.5563 8.8 37.3323 9.112C37.1163 9.416 36.8003 9.656 36.3843 9.832C35.9763 10.008 35.5003 10.096 34.9563 10.096ZM42.6557 8.26V10H41.6117C40.8677 10 40.2877 9.82 39.8717 9.46C39.4557 9.092 39.2477 8.496 39.2477 7.672V5.008H38.4317V3.304H39.2477V1.672H41.2997V3.304H42.6437V5.008H41.2997V7.696C41.2997 7.896 41.3477 8.04 41.4437 8.128C41.5397 8.216 41.6997 8.26 41.9237 8.26H42.6557Z" fill="white"/>
<path d="M46.4987 1.276L46.2587 7.024H44.5187L44.2787 1.276H46.4987ZM45.4187 10.096C45.0587 10.096 44.7627 9.992 44.5307 9.784C44.3067 9.568 44.1947 9.304 44.1947 8.992C44.1947 8.672 44.3067 8.404 44.5307 8.188C44.7627 7.972 45.0587 7.864 45.4187 7.864C45.7707 7.864 46.0587 7.972 46.2827 8.188C46.5147 8.404 46.6307 8.672 46.6307 8.992C46.6307 9.304 46.5147 9.568 46.2827 9.784C46.0587 9.992 45.7707 10.096 45.4187 10.096Z" fill="#FFE156"/>
</svg>
