<svg xmlns="http://www.w3.org/2000/svg" width="98" height="46" viewBox="0 0 98 46" fill="none">
  <path
    d="M0 33.5325V11.4661H7.98726C14.3388 11.4661 18.992 15.5438 18.992 22.5144C18.992 29.485 14.3067 33.5325 7.95512 33.5325H0ZM7.79926 29.5486C11.4466 29.5486 14.4963 27.3078 14.4963 22.5144C14.4963 17.721 11.4772 15.45 7.82979 15.45H4.33989V29.5486H7.79926Z"
    fill="white"
  ></path>
  <path
    d="M35.836 29.1445C35.0503 31.7893 32.5968 34 28.7919 34C24.5469 34 20.8047 30.9814 20.8047 25.8143C20.8047 20.9287 24.4521 17.7543 28.4144 17.7543C33.1945 17.7543 36.0545 20.7728 36.0545 25.6902C36.0545 26.2819 35.9919 26.9037 35.9919 26.9657H24.9244C25.0192 28.9887 26.7481 30.4518 28.8241 30.4518C30.7731 30.4518 31.8432 29.4865 32.3461 28.1172L35.836 29.1445ZM31.938 24.1333C31.8753 22.6081 30.8695 21.1147 28.4786 21.1147C26.3095 21.1147 25.114 22.7337 25.0192 24.1333H31.938Z"
    fill="white"
  ></path>
  <path
    d="M42.3947 24.7249L46.1995 24.1651C47.08 24.041 47.3628 23.6053 47.3628 23.0757C47.3628 21.9863 46.5144 21.0845 44.7534 21.0845C42.9297 21.0845 41.9239 22.2359 41.7985 23.575L38.0885 22.7973C38.3408 20.4007 40.5726 17.7559 44.7229 17.7559C49.6283 17.7559 51.452 20.4945 51.452 23.575V31.1071C51.452 31.9166 51.5468 33.006 51.64 33.534H47.803C47.7082 33.13 47.6456 32.2887 47.6456 31.6971C46.8599 32.9105 45.3816 33.9697 43.0856 33.9697C39.7837 33.9697 37.772 31.7607 37.772 29.364C37.772 26.6238 39.8158 25.0986 42.3947 24.7249ZM47.3628 27.3395V26.6556L43.8729 27.1852C42.8044 27.341 41.9544 27.9327 41.9544 29.1143C41.9544 30.0161 42.6148 30.8876 43.9661 30.8876C45.7271 30.8876 47.3628 30.0463 47.3628 27.3395Z"
    fill="white"
  ></path>
  <path d="M54.8613 33.5324V11H59.0438V33.5324H54.8613Z" fill="white"></path>
  <path d="M62.5806 33.5324V11H66.763V33.5324H62.5806Z" fill="white"></path>
  <path
    d="M72.8367 28.491C72.9315 29.7045 73.8425 30.8257 75.6662 30.8257C77.0496 30.8257 77.71 30.11 77.71 29.3005C77.71 28.6151 77.2376 28.0553 76.0438 27.8072L74 27.3396C71.013 26.6859 69.6601 24.9127 69.6601 22.7641C69.6601 20.0255 72.112 17.7528 75.4461 17.7528C79.8486 17.7528 81.3252 20.5232 81.5148 22.1725L78.0249 22.9502C77.8996 22.0484 77.2392 20.8954 75.4782 20.8954C74.3776 20.8954 73.497 21.549 73.497 22.4206C73.497 23.168 74.0626 23.634 74.9126 23.7899L77.1139 24.2574C80.1635 24.8793 81.7044 26.7162 81.7044 28.957C81.7044 31.4475 79.7554 33.9985 75.6983 33.9985C71.0451 33.9985 69.4416 31.0102 69.252 29.2671L72.8367 28.491Z"
    fill="white"
  ></path>
  <path
    d="M88.4945 26.81H85.4448L84.439 11.4661H89.5019L88.4945 26.81ZM86.9536 28.833C88.337 28.833 89.4698 29.9526 89.4698 31.3235C89.4698 32.6944 88.3386 33.7822 86.9536 33.7822C85.6007 33.7822 84.5016 32.6928 84.5016 31.3235C84.5016 29.9542 85.6023 28.833 86.9536 28.833Z"
    fill="#FFE156"
  ></path>
</svg>
